<svg xmlns="http://www.w3.org/2000/svg" width="1000" height="480" viewBox="0 0 1000 480" role="img">
<rect width="100%" height="100%" fill="white"/>
<title>Calculated airtime and the physical completion edge</title>
<text x="35" y="32" text-anchor="start" font-family="sans-serif" font-size="23" fill="#142536">Calculated airtime and the physical completion edge</text>
<text x="35" y="57" text-anchor="start" font-family="sans-serif" font-size="13" fill="#34495e">SetTx-request-to-DIO1 time minus calculated BW500 airtime; expanded vertical scale.</text>
<line x1="85" y1="360.0" x2="950" y2="360.0" stroke="#d9e0e5" stroke-dasharray=""/>
<text x="73" y="364.0" text-anchor="end" font-family="sans-serif" font-size="12" fill="#34495e">590 us</text>
<line x1="85" y1="296.25" x2="950" y2="296.25" stroke="#d9e0e5" stroke-dasharray=""/>
<text x="73" y="300.25" text-anchor="end" font-family="sans-serif" font-size="12" fill="#34495e">595 us</text>
<line x1="85" y1="232.5" x2="950" y2="232.5" stroke="#d9e0e5" stroke-dasharray=""/>
<text x="73" y="236.5" text-anchor="end" font-family="sans-serif" font-size="12" fill="#34495e">600 us</text>
<line x1="85" y1="168.75" x2="950" y2="168.75" stroke="#d9e0e5" stroke-dasharray=""/>
<text x="73" y="172.75" text-anchor="end" font-family="sans-serif" font-size="12" fill="#34495e">605 us</text>
<line x1="85" y1="105.0" x2="950" y2="105.0" stroke="#d9e0e5" stroke-dasharray=""/>
<text x="73" y="109.0" text-anchor="end" font-family="sans-serif" font-size="12" fill="#34495e">610 us</text>
<circle cx="99.42" cy="194.25" r="4.5" fill="#087f8c"/>
<circle cx="128.25" cy="181.50" r="4.5" fill="#087f8c"/>
<circle cx="157.08" cy="219.75" r="4.5" fill="#087f8c"/>
<circle cx="185.92" cy="194.25" r="4.5" fill="#087f8c"/>
<circle cx="214.75" cy="181.50" r="4.5" fill="#087f8c"/>
<circle cx="243.58" cy="194.25" r="4.5" fill="#087f8c"/>
<circle cx="272.42" cy="181.50" r="4.5" fill="#087f8c"/>
<circle cx="301.25" cy="181.50" r="4.5" fill="#087f8c"/>
<circle cx="330.08" cy="194.25" r="4.5" fill="#087f8c"/>
<circle cx="358.92" cy="194.25" r="4.5" fill="#087f8c"/>
<circle cx="387.75" cy="181.50" r="4.5" fill="#087f8c"/>
<circle cx="416.58" cy="194.25" r="4.5" fill="#087f8c"/>
<circle cx="445.42" cy="194.25" r="4.5" fill="#087f8c"/>
<circle cx="474.25" cy="219.75" r="4.5" fill="#087f8c"/>
<circle cx="503.08" cy="232.50" r="4.5" fill="#087f8c"/>
<circle cx="531.92" cy="207.00" r="4.5" fill="#087f8c"/>
<circle cx="560.75" cy="219.75" r="4.5" fill="#087f8c"/>
<circle cx="589.58" cy="194.25" r="4.5" fill="#087f8c"/>
<circle cx="618.42" cy="245.25" r="4.5" fill="#087f8c"/>
<circle cx="647.25" cy="194.25" r="4.5" fill="#087f8c"/>
<circle cx="676.08" cy="181.50" r="4.5" fill="#a43f7b"/>
<circle cx="704.92" cy="181.50" r="4.5" fill="#a43f7b"/>
<circle cx="733.75" cy="207.00" r="4.5" fill="#a43f7b"/>
<circle cx="762.58" cy="194.25" r="4.5" fill="#a43f7b"/>
<circle cx="791.42" cy="181.50" r="4.5" fill="#a43f7b"/>
<circle cx="820.25" cy="181.50" r="4.5" fill="#a43f7b"/>
<circle cx="849.08" cy="194.25" r="4.5" fill="#a43f7b"/>
<circle cx="877.92" cy="245.25" r="4.5" fill="#a43f7b"/>
<circle cx="906.75" cy="232.50" r="4.5" fill="#a43f7b"/>
<circle cx="935.58" cy="245.25" r="4.5" fill="#a43f7b"/>
<line x1="661.6666666666666" y1="105" x2="661.6666666666666" y2="360" stroke="#8c99a5" stroke-dasharray="4 4"/>
<text x="230" y="390" text-anchor="start" font-family="sans-serif" font-size="14" fill="#34495e">SF7: 20 observations</text>
<text x="725" y="390" text-anchor="start" font-family="sans-serif" font-size="14" fill="#34495e">SF9: 10 observations</text>
<text x="85" y="422" text-anchor="start" font-family="sans-serif" font-size="15" fill="#34495e">Observed overhead: 599-604 us; median 603 us in both profiles.</text>
<text x="35" y="452" text-anchor="start" font-family="sans-serif" font-size="12" fill="#34495e">Includes command, synthesizer/startup, ramp and ISR overhead. Not a spectrum or bandwidth measurement.</text>
</svg>
