<svg xmlns="http://www.w3.org/2000/svg" width="1600" height="640" viewBox="0 0 1600 640">

<defs>
  <filter id="shadow" x="-20%" y="-20%" width="140%" height="140%">
    <feDropShadow dx="0" dy="3" stdDeviation="4" flood-opacity="0.18"/>
  </filter>
  <linearGradient id="bg" x1="0" y1="0" x2="1" y2="1">
    <stop offset="0%" stop-color="#111827"/>
    <stop offset="100%" stop-color="#1f2937"/>
  </linearGradient>
</defs>

<rect width="1600" height="640" rx="28" fill="url(#bg)"/>
<text x="70" y="62" font-family="Inter,Arial,sans-serif" font-size="30" font-weight="700" fill="white">NEON HEART</text>
<text x="70" y="94" font-family="Inter,Arial,sans-serif" font-size="15" fill="#cbd5e1">abstract melody map · color = pitch · width = duration · height = register</text>
<rect x="70.0" y="112" width="101.3" height="42" rx="8" fill="#374151"/>
<text x="120.6" y="139" text-anchor="middle" font-family="Inter,Arial,sans-serif" font-size="16" font-weight="700" fill="white">F♯m</text>
<rect x="174.3" y="112" width="101.3" height="42" rx="8" fill="#374151"/>
<text x="224.9" y="139" text-anchor="middle" font-family="Inter,Arial,sans-serif" font-size="16" font-weight="700" fill="white">D</text>
<rect x="278.6" y="112" width="101.3" height="42" rx="8" fill="#374151"/>
<text x="329.2" y="139" text-anchor="middle" font-family="Inter,Arial,sans-serif" font-size="16" font-weight="700" fill="white">A</text>
<rect x="382.9" y="112" width="101.3" height="42" rx="8" fill="#374151"/>
<text x="433.5" y="139" text-anchor="middle" font-family="Inter,Arial,sans-serif" font-size="16" font-weight="700" fill="white">E</text>
<rect x="487.1" y="112" width="101.3" height="42" rx="8" fill="#374151"/>
<text x="537.8" y="139" text-anchor="middle" font-family="Inter,Arial,sans-serif" font-size="16" font-weight="700" fill="white">F♯m</text>
<rect x="591.4" y="112" width="101.3" height="42" rx="8" fill="#374151"/>
<text x="642.1" y="139" text-anchor="middle" font-family="Inter,Arial,sans-serif" font-size="16" font-weight="700" fill="white">D</text>
<rect x="695.7" y="112" width="101.3" height="42" rx="8" fill="#374151"/>
<text x="746.4" y="139" text-anchor="middle" font-family="Inter,Arial,sans-serif" font-size="16" font-weight="700" fill="white">A</text>
<rect x="800.0" y="112" width="101.3" height="42" rx="8" fill="#374151"/>
<text x="850.6" y="139" text-anchor="middle" font-family="Inter,Arial,sans-serif" font-size="16" font-weight="700" fill="white">E</text>
<rect x="904.3" y="112" width="101.3" height="42" rx="8" fill="#4b5563"/>
<text x="954.9" y="139" text-anchor="middle" font-family="Inter,Arial,sans-serif" font-size="16" font-weight="700" fill="white">D</text>
<rect x="1008.6" y="112" width="101.3" height="42" rx="8" fill="#4b5563"/>
<text x="1059.2" y="139" text-anchor="middle" font-family="Inter,Arial,sans-serif" font-size="16" font-weight="700" fill="white">E</text>
<rect x="1112.9" y="112" width="101.3" height="42" rx="8" fill="#4b5563"/>
<text x="1163.5" y="139" text-anchor="middle" font-family="Inter,Arial,sans-serif" font-size="16" font-weight="700" fill="white">F♯m</text>
<rect x="1217.1" y="112" width="101.3" height="42" rx="8" fill="#4b5563"/>
<text x="1267.8" y="139" text-anchor="middle" font-family="Inter,Arial,sans-serif" font-size="16" font-weight="700" fill="white">A</text>
<rect x="1321.4" y="112" width="101.3" height="42" rx="8" fill="#4b5563"/>
<text x="1372.1" y="139" text-anchor="middle" font-family="Inter,Arial,sans-serif" font-size="16" font-weight="700" fill="white">D</text>
<rect x="1425.7" y="112" width="101.3" height="42" rx="8" fill="#4b5563"/>
<text x="1476.4" y="139" text-anchor="middle" font-family="Inter,Arial,sans-serif" font-size="16" font-weight="700" fill="white">E</text>
<line x1="70" y1="169.4" x2="1530" y2="169.4" stroke="#334155" stroke-width="1"/>
<line x1="70" y1="208.3" x2="1530" y2="208.3" stroke="#334155" stroke-width="1"/>
<line x1="70" y1="247.2" x2="1530" y2="247.2" stroke="#334155" stroke-width="1"/>
<line x1="70" y1="286.1" x2="1530" y2="286.1" stroke="#334155" stroke-width="1"/>
<line x1="70" y1="325.0" x2="1530" y2="325.0" stroke="#334155" stroke-width="1"/>
<line x1="70" y1="363.9" x2="1530" y2="363.9" stroke="#334155" stroke-width="1"/>
<line x1="70" y1="402.8" x2="1530" y2="402.8" stroke="#334155" stroke-width="1"/>
<line x1="70" y1="441.7" x2="1530" y2="441.7" stroke="#334155" stroke-width="1"/>
<line x1="70" y1="480.6" x2="1530" y2="480.6" stroke="#334155" stroke-width="1"/>
<rect x="70.0" y="430.9" width="9.0" height="21.5" rx="9.0" fill="rgb(237,176,90)" filter="url(#shadow)"/>
<rect x="83.0" y="430.9" width="9.0" height="21.5" rx="9.0" fill="rgb(237,176,90)" filter="url(#shadow)"/>
<rect x="96.1" y="353.1" width="9.0" height="21.5" rx="9.0" fill="rgb(126,237,90)" filter="url(#shadow)"/>
<rect x="109.1" y="314.2" width="9.0" height="21.5" rx="9.0" fill="rgb(90,237,140)" filter="url(#shadow)"/>
<rect x="122.1" y="273.6" width="22.1" height="25.0" rx="9.0" fill="rgb(90,237,226)" filter="url(#shadow)"/>
<rect x="148.2" y="314.2" width="9.0" height="21.5" rx="9.0" fill="rgb(90,237,140)" filter="url(#shadow)"/>
<rect x="161.3" y="353.1" width="9.0" height="21.5" rx="9.0" fill="rgb(126,237,90)" filter="url(#shadow)"/>
<rect x="174.3" y="314.2" width="9.0" height="21.5" rx="9.0" fill="rgb(90,237,140)" filter="url(#shadow)"/>
<rect x="187.3" y="314.2" width="9.0" height="21.5" rx="9.0" fill="rgb(90,237,140)" filter="url(#shadow)"/>
<rect x="200.4" y="236.5" width="9.0" height="21.5" rx="9.0" fill="rgb(90,162,237)" filter="url(#shadow)"/>
<rect x="213.4" y="314.2" width="9.0" height="21.5" rx="9.0" fill="rgb(90,237,140)" filter="url(#shadow)"/>
<rect x="226.4" y="351.4" width="22.1" height="25.0" rx="9.0" fill="rgb(126,237,90)" filter="url(#shadow)"/>
<rect x="252.5" y="392.0" width="9.0" height="21.5" rx="9.0" fill="rgb(212,237,90)" filter="url(#shadow)"/>
<rect x="265.5" y="430.9" width="9.0" height="21.5" rx="9.0" fill="rgb(237,176,90)" filter="url(#shadow)"/>
<rect x="278.6" y="430.9" width="9.0" height="21.5" rx="9.0" fill="rgb(237,176,90)" filter="url(#shadow)"/>
<rect x="291.6" y="353.1" width="9.0" height="21.5" rx="9.0" fill="rgb(126,237,90)" filter="url(#shadow)"/>
<rect x="304.6" y="314.2" width="9.0" height="21.5" rx="9.0" fill="rgb(90,237,140)" filter="url(#shadow)"/>
<rect x="317.7" y="353.1" width="9.0" height="21.5" rx="9.0" fill="rgb(126,237,90)" filter="url(#shadow)"/>
<rect x="330.7" y="429.2" width="22.1" height="25.0" rx="9.0" fill="rgb(237,176,90)" filter="url(#shadow)"/>
<rect x="356.8" y="469.8" width="9.0" height="21.5" rx="9.0" fill="rgb(237,90,90)" filter="url(#shadow)"/>
<rect x="369.8" y="430.9" width="9.0" height="21.5" rx="9.0" fill="rgb(237,176,90)" filter="url(#shadow)"/>
<rect x="382.9" y="469.8" width="9.0" height="21.5" rx="9.0" fill="rgb(237,90,90)" filter="url(#shadow)"/>
<rect x="395.9" y="430.9" width="9.0" height="21.5" rx="9.0" fill="rgb(237,176,90)" filter="url(#shadow)"/>
<rect x="408.9" y="353.1" width="9.0" height="21.5" rx="9.0" fill="rgb(126,237,90)" filter="url(#shadow)"/>
<rect x="422.0" y="314.2" width="9.0" height="21.5" rx="9.0" fill="rgb(90,237,140)" filter="url(#shadow)"/>
<rect x="435.0" y="348.7" width="48.1" height="30.3" rx="9.0" fill="rgb(126,237,90)" filter="url(#shadow)"/>
<rect x="487.1" y="430.9" width="9.0" height="21.5" rx="9.0" fill="rgb(237,176,90)" filter="url(#shadow)"/>
<rect x="500.2" y="430.9" width="9.0" height="21.5" rx="9.0" fill="rgb(237,176,90)" filter="url(#shadow)"/>
<rect x="513.2" y="353.1" width="9.0" height="21.5" rx="9.0" fill="rgb(126,237,90)" filter="url(#shadow)"/>
<rect x="526.2" y="314.2" width="9.0" height="21.5" rx="9.0" fill="rgb(90,237,140)" filter="url(#shadow)"/>
<rect x="539.3" y="234.7" width="22.1" height="25.0" rx="9.0" fill="rgb(90,162,237)" filter="url(#shadow)"/>
<rect x="565.4" y="275.4" width="9.0" height="21.5" rx="9.0" fill="rgb(90,237,226)" filter="url(#shadow)"/>
<rect x="578.4" y="314.2" width="9.0" height="21.5" rx="9.0" fill="rgb(90,237,140)" filter="url(#shadow)"/>
<rect x="591.4" y="314.2" width="9.0" height="21.5" rx="9.0" fill="rgb(90,237,140)" filter="url(#shadow)"/>
<rect x="604.5" y="353.1" width="9.0" height="21.5" rx="9.0" fill="rgb(126,237,90)" filter="url(#shadow)"/>
<rect x="617.5" y="392.0" width="9.0" height="21.5" rx="9.0" fill="rgb(212,237,90)" filter="url(#shadow)"/>
<rect x="630.5" y="430.9" width="9.0" height="21.5" rx="9.0" fill="rgb(237,176,90)" filter="url(#shadow)"/>
<rect x="643.6" y="390.3" width="22.1" height="25.0" rx="9.0" fill="rgb(212,237,90)" filter="url(#shadow)"/>
<rect x="669.6" y="314.2" width="9.0" height="21.5" rx="9.0" fill="rgb(90,237,140)" filter="url(#shadow)"/>
<rect x="682.7" y="236.5" width="9.0" height="21.5" rx="9.0" fill="rgb(90,162,237)" filter="url(#shadow)"/>
<rect x="695.7" y="275.4" width="9.0" height="21.5" rx="9.0" fill="rgb(90,237,226)" filter="url(#shadow)"/>
<rect x="708.8" y="314.2" width="9.0" height="21.5" rx="9.0" fill="rgb(90,237,140)" filter="url(#shadow)"/>
<rect x="721.8" y="353.1" width="9.0" height="21.5" rx="9.0" fill="rgb(126,237,90)" filter="url(#shadow)"/>
<rect x="734.8" y="430.9" width="9.0" height="21.5" rx="9.0" fill="rgb(237,176,90)" filter="url(#shadow)"/>
<rect x="747.9" y="351.4" width="22.1" height="25.0" rx="9.0" fill="rgb(126,237,90)" filter="url(#shadow)"/>
<rect x="773.9" y="430.9" width="9.0" height="21.5" rx="9.0" fill="rgb(237,176,90)" filter="url(#shadow)"/>
<rect x="787.0" y="469.8" width="9.0" height="21.5" rx="9.0" fill="rgb(237,90,90)" filter="url(#shadow)"/>
<rect x="800.0" y="469.8" width="9.0" height="21.5" rx="9.0" fill="rgb(237,90,90)" filter="url(#shadow)"/>
<rect x="813.0" y="430.9" width="9.0" height="21.5" rx="9.0" fill="rgb(237,176,90)" filter="url(#shadow)"/>
<rect x="826.1" y="353.1" width="9.0" height="21.5" rx="9.0" fill="rgb(126,237,90)" filter="url(#shadow)"/>
<rect x="839.1" y="314.2" width="9.0" height="21.5" rx="9.0" fill="rgb(90,237,140)" filter="url(#shadow)"/>
<rect x="852.1" y="348.7" width="48.1" height="30.3" rx="9.0" fill="rgb(126,237,90)" filter="url(#shadow)"/>
<rect x="904.3" y="312.5" width="22.1" height="25.0" rx="9.0" fill="rgb(90,237,140)" filter="url(#shadow)"/>
<rect x="930.4" y="314.2" width="9.0" height="21.5" rx="9.0" fill="rgb(90,237,140)" filter="url(#shadow)"/>
<rect x="943.4" y="236.5" width="9.0" height="21.5" rx="9.0" fill="rgb(90,162,237)" filter="url(#shadow)"/>
<rect x="956.4" y="234.7" width="22.1" height="25.0" rx="9.0" fill="rgb(90,162,237)" filter="url(#shadow)"/>
<rect x="982.5" y="314.2" width="9.0" height="21.5" rx="9.0" fill="rgb(90,237,140)" filter="url(#shadow)"/>
<rect x="995.5" y="353.1" width="9.0" height="21.5" rx="9.0" fill="rgb(126,237,90)" filter="url(#shadow)"/>
<rect x="1008.6" y="273.6" width="22.1" height="25.0" rx="9.0" fill="rgb(90,237,226)" filter="url(#shadow)"/>
<rect x="1034.6" y="275.4" width="9.0" height="21.5" rx="9.0" fill="rgb(90,237,226)" filter="url(#shadow)"/>
<rect x="1047.7" y="197.6" width="9.0" height="21.5" rx="9.0" fill="rgb(104,90,237)" filter="url(#shadow)"/>
<rect x="1060.7" y="195.8" width="22.1" height="25.0" rx="9.0" fill="rgb(104,90,237)" filter="url(#shadow)"/>
<rect x="1086.8" y="275.4" width="9.0" height="21.5" rx="9.0" fill="rgb(90,237,226)" filter="url(#shadow)"/>
<rect x="1099.8" y="314.2" width="9.0" height="21.5" rx="9.0" fill="rgb(90,237,140)" filter="url(#shadow)"/>
<rect x="1112.9" y="234.7" width="22.1" height="25.0" rx="9.0" fill="rgb(90,162,237)" filter="url(#shadow)"/>
<rect x="1138.9" y="236.5" width="9.0" height="21.5" rx="9.0" fill="rgb(90,162,237)" filter="url(#shadow)"/>
<rect x="1152.0" y="275.4" width="9.0" height="21.5" rx="9.0" fill="rgb(90,237,226)" filter="url(#shadow)"/>
<rect x="1165.0" y="312.5" width="22.1" height="25.0" rx="9.0" fill="rgb(90,237,140)" filter="url(#shadow)"/>
<rect x="1191.1" y="430.9" width="9.0" height="21.5" rx="9.0" fill="rgb(237,176,90)" filter="url(#shadow)"/>
<rect x="1204.1" y="353.1" width="9.0" height="21.5" rx="9.0" fill="rgb(126,237,90)" filter="url(#shadow)"/>
<rect x="1217.1" y="312.5" width="22.1" height="25.0" rx="9.0" fill="rgb(90,237,140)" filter="url(#shadow)"/>
<rect x="1243.2" y="353.1" width="9.0" height="21.5" rx="9.0" fill="rgb(126,237,90)" filter="url(#shadow)"/>
<rect x="1256.3" y="430.9" width="9.0" height="21.5" rx="9.0" fill="rgb(237,176,90)" filter="url(#shadow)"/>
<rect x="1269.3" y="348.7" width="48.1" height="30.3" rx="9.0" fill="rgb(126,237,90)" filter="url(#shadow)"/>
<rect x="1321.4" y="312.5" width="22.1" height="25.0" rx="9.0" fill="rgb(90,237,140)" filter="url(#shadow)"/>
<rect x="1347.5" y="314.2" width="9.0" height="21.5" rx="9.0" fill="rgb(90,237,140)" filter="url(#shadow)"/>
<rect x="1360.5" y="236.5" width="9.0" height="21.5" rx="9.0" fill="rgb(90,162,237)" filter="url(#shadow)"/>
<rect x="1373.6" y="156.9" width="22.1" height="25.0" rx="9.0" fill="rgb(190,90,237)" filter="url(#shadow)"/>
<rect x="1399.6" y="197.6" width="9.0" height="21.5" rx="9.0" fill="rgb(104,90,237)" filter="url(#shadow)"/>
<rect x="1412.7" y="236.5" width="9.0" height="21.5" rx="9.0" fill="rgb(90,162,237)" filter="url(#shadow)"/>
<rect x="1425.7" y="273.6" width="22.1" height="25.0" rx="9.0" fill="rgb(90,237,226)" filter="url(#shadow)"/>
<rect x="1451.8" y="275.4" width="9.0" height="21.5" rx="9.0" fill="rgb(90,237,226)" filter="url(#shadow)"/>
<rect x="1464.8" y="197.6" width="9.0" height="21.5" rx="9.0" fill="rgb(104,90,237)" filter="url(#shadow)"/>
<rect x="1477.9" y="156.9" width="22.1" height="25.0" rx="9.0" fill="rgb(190,90,237)" filter="url(#shadow)"/>
<rect x="1503.9" y="197.6" width="9.0" height="21.5" rx="9.0" fill="rgb(104,90,237)" filter="url(#shadow)"/>
<rect x="1517.0" y="275.4" width="9.0" height="21.5" rx="9.0" fill="rgb(90,237,226)" filter="url(#shadow)"/>
<text x="70" y="575" font-family="Inter,Arial,sans-serif" font-size="14" font-weight="700" fill="#f8fafc">VERSE</text>
<text x="904.3" y="575" font-family="Inter,Arial,sans-serif" font-size="14" font-weight="700" fill="#f8fafc">CHORUS</text>
<rect x="70" y="592" width="22" height="12" rx="4" fill="#ef4444"/>
<text x="100" y="603" font-family="Inter,Arial,sans-serif" font-size="13" fill="#cbd5e1">lower pitch</text>
<rect x="205" y="592" width="22" height="12" rx="4" fill="#3b82f6"/>
<text x="235" y="603" font-family="Inter,Arial,sans-serif" font-size="13" fill="#cbd5e1">higher pitch</text>
<text x="430" y="603" font-family="Inter,Arial,sans-serif" font-size="13" fill="#cbd5e1">longer box = longer note</text>
</svg>